<?xml version="1.0" encoding="UTF-8"?>
<svg version="1.1" xmlns="http://www.w3.org/2000/svg" width="65" height="61">
<path d="M0 0 C-1.95693031 6.99266823 -3.91415525 13.98525394 -5.87158203 20.9777832 C-6.53701401 23.35504299 -7.20237931 25.73232143 -7.86767578 28.10961914 C-8.82566957 31.53276436 -9.78390557 34.95584169 -10.7421875 38.37890625 C-11.03809784 39.43646622 -11.33400818 40.49402618 -11.6388855 41.58363342 C-13.07885617 46.72644128 -14.52614127 51.86679673 -16 57 C-20.49092377 54.62245212 -23.52235713 51.6393937 -27 48 C-28.32 52.29 -29.64 56.58 -31 61 C-34.86970605 59.06514697 -37.58339776 56.85094721 -40.6875 53.9375 C-41.21569336 53.44797852 -41.74388672 52.95845703 -42.28808594 52.45410156 C-46.25494005 48.75602401 -50.09368586 44.9426501 -53.88671875 41.06640625 C-56.62754716 38.38637256 -59.55897765 35.97975449 -62.56640625 33.60546875 C-64 32 -64 32 -64 28 C-58.06 26.515 -58.06 26.515 -52 25 C-53.11375 23.9171875 -53.11375 23.9171875 -54.25 22.8125 C-56.69290515 20.31407427 -58.8681047 17.76356798 -61 15 C-54.41395265 12.69587404 -47.77367024 10.81015432 -41.015625 9.08203125 C-39.99700378 8.81992355 -38.97838257 8.55781586 -37.92889404 8.2877655 C-35.7914118 7.7390486 -33.65348502 7.19206065 -31.51513672 6.64672852 C-28.24398934 5.8109643 -24.97550373 4.96529713 -21.70703125 4.11914062 C-19.62255057 3.5853329 -17.53792021 3.05210926 -15.453125 2.51953125 C-13.99208344 2.13991997 -13.99208344 2.13991997 -12.50152588 1.75263977 C-11.58997742 1.52207382 -10.67842896 1.29150787 -9.73925781 1.05395508 C-8.54420624 0.74775993 -8.54420624 0.74775993 -7.32501221 0.43537903 C-4.83513068 -0.03087323 -2.52741553 -0.07554527 0 0 Z " fill="#00B17D" transform="translate(65,0)"/>
</svg>
